<svg width="120" height="42" viewBox="0 0 120 42" fill="none" xmlns="http://www.w3.org/2000/svg">
<g clip-path="url(#clip0_333_604)">
<path d="M3.40788 0.476463L116.762 0.678302C118.346 0.678302 119.761 0.442977 119.761 3.83835L119.622 41.1674H0.547363V3.69958C0.547363 2.02568 0.709437 0.476463 3.40788 0.476463Z" fill="#AAB2AB"/>
<path d="M34.5222 19.5755C34.5271 27.1047 28.4256 33.2118 20.8956 33.2171C13.3655 33.2215 7.25681 27.1212 7.25244 19.592C7.25244 19.5862 7.25244 19.5813 7.25244 19.5755C7.24807 12.0454 13.349 5.93828 20.8791 5.93389C28.4101 5.92901 34.5178 12.0298 34.5222 19.559C34.5222 19.5639 34.5222 19.5697 34.5222 19.5755Z" fill="white"/>
<path d="M31.9713 8.47046C34.9949 11.4942 36.5069 15.1962 36.5069 19.5755C36.5069 23.9553 35.0211 27.6175 32.0494 30.5631C28.8958 33.6654 25.1687 35.2161 20.8679 35.2161C16.6191 35.2161 12.9565 33.6785 9.88105 30.6019C6.80506 27.5263 5.26733 23.851 5.26733 19.5755C5.26733 15.3005 6.80506 11.5989 9.88105 8.47046C12.8784 5.44628 16.541 3.93491 20.8679 3.93491C25.2473 3.93491 28.9477 5.44628 31.9713 8.47046ZM11.9166 10.5044C9.36036 13.0861 8.08271 16.1103 8.08271 19.5794C8.08271 23.0475 9.34776 26.046 11.8773 28.5748C14.4074 31.1046 17.4193 32.3695 20.914 32.3695C24.4088 32.3695 27.4464 31.092 30.0284 28.5364C32.4798 26.1634 33.7061 23.1785 33.7061 19.5794C33.7061 16.0074 32.4599 12.9759 29.9692 10.4849C27.4789 7.99494 24.4607 6.74949 20.914 6.74949C17.3674 6.74949 14.3676 8.0013 11.9166 10.5044ZM18.6436 18.0534C18.2529 17.202 17.6682 16.7764 16.8884 16.7764C15.5099 16.7764 14.8208 17.7041 14.8208 19.5595C14.8208 21.4153 15.5099 22.343 16.8884 22.343C17.7988 22.343 18.449 21.8908 18.8391 20.9854L20.75 22.0029C19.8392 23.621 18.4728 24.4308 16.6507 24.4308C15.2455 24.4308 14.1197 23.9999 13.2743 23.1387C12.4276 22.277 12.0054 21.0893 12.0054 19.5755C12.0054 18.0874 12.4412 16.9065 13.3132 16.0316C14.1852 15.1574 15.2711 14.7197 16.573 14.7197C18.499 14.7197 19.878 15.4786 20.7117 16.9947L18.6436 18.0534ZM27.6337 18.0534C27.2426 17.202 26.6695 16.7764 25.914 16.7764C24.5077 16.7764 23.8042 17.7041 23.8042 19.5595C23.8042 21.4153 24.5077 22.343 25.914 22.343C26.8258 22.343 27.4644 21.8908 27.8288 20.9854L29.7824 22.0029C28.873 23.621 27.5085 24.4308 25.6898 24.4308C24.2865 24.4308 23.1631 23.9999 22.3183 23.1387C21.475 22.277 21.0523 21.0893 21.0523 19.5755C21.0523 18.0874 21.4813 16.9065 22.3387 16.0316C23.1957 15.1574 24.2865 14.7197 25.6122 14.7197C27.5347 14.7197 28.9118 15.4786 29.7426 16.9947L27.6337 18.0534Z" fill="black"/>
<path d="M117.753 0H2.24668C1.00785 0 0 1.00823 0 2.24692V41.4925C0 41.7725 0.227103 42 0.507081 42H119.492C119.772 42 120 41.7725 120 41.4925V2.24693C120 1.00823 118.992 0 117.753 0ZM2.24668 1.01503H117.753C118.433 1.01503 118.985 1.56766 118.985 2.24693C118.985 2.24693 118.985 18.0656 118.985 29.4918H36.4278C33.4018 34.9623 27.5721 38.6769 20.8815 38.6769C14.1881 38.6769 8.3598 34.9657 5.33528 29.4918H1.01418C1.01418 18.0656 1.01418 2.24693 1.01418 2.24693C1.01416 1.56766 1.56734 1.01503 2.24668 1.01503Z" fill="black"/>
<path d="M86.2639 37.7323C86.3435 37.887 86.4502 38.0122 86.5832 38.1083C86.7161 38.2039 86.8714 38.2752 87.05 38.3213C87.2295 38.3679 87.4149 38.3912 87.6061 38.3912C87.7351 38.3912 87.8739 38.3805 88.0224 38.3587C88.1699 38.3373 88.3087 38.2951 88.4388 38.2335C88.5678 38.1719 88.6765 38.0865 88.7619 37.9783C88.8493 37.8701 88.892 37.7328 88.892 37.5654C88.892 37.3863 88.8347 37.2413 88.7202 37.1297C88.6067 37.0181 88.4563 36.9259 88.2709 36.8512C88.0865 36.7774 87.8759 36.7124 87.642 36.6566C87.4072 36.6008 87.1694 36.5392 86.9287 36.4708C86.6812 36.4092 86.4405 36.3335 86.2057 36.2437C85.9718 36.1544 85.7612 36.038 85.5758 35.8958C85.3905 35.7537 85.241 35.5761 85.1265 35.3626C85.013 35.1491 84.9557 34.891 84.9557 34.5882C84.9557 34.2476 85.0285 33.9526 85.1731 33.7023C85.3186 33.4519 85.5088 33.2433 85.7437 33.0759C85.9776 32.909 86.2435 32.7853 86.5405 32.7047C86.8365 32.6247 87.1334 32.5844 87.4294 32.5844C87.7759 32.5844 88.1078 32.6232 88.4262 32.7008C88.7435 32.778 89.0269 32.9037 89.2734 33.0769C89.5209 33.2501 89.7169 33.4713 89.8625 33.7406C90.0071 34.0099 90.0798 34.3364 90.0798 34.7197H88.6668C88.6542 34.5218 88.6125 34.3578 88.5426 34.2282C88.4717 34.0982 88.3776 33.9963 88.2612 33.9216C88.1437 33.8478 88.0098 33.795 87.8594 33.7644C87.708 33.7333 87.544 33.7178 87.3654 33.7178C87.2489 33.7178 87.1315 33.7304 87.015 33.7547C86.8976 33.7799 86.7918 33.8231 86.6967 33.8847C86.6006 33.9468 86.522 34.024 86.4609 34.1166C86.3998 34.2098 86.3687 34.3272 86.3687 34.4694C86.3687 34.5994 86.393 34.7047 86.4425 34.7847C86.492 34.8653 86.59 34.9395 86.7346 35.0074C86.8792 35.0754 87.0801 35.1438 87.3363 35.2117C87.5925 35.2796 87.9273 35.3665 88.3417 35.4713C88.465 35.496 88.6358 35.5412 88.8551 35.6062C89.0744 35.6712 89.2918 35.7745 89.5083 35.9167C89.7247 36.0593 89.911 36.2495 90.0692 36.4873C90.2264 36.7255 90.305 37.0302 90.305 37.4014C90.305 37.7046 90.2458 37.986 90.1284 38.2456C90.011 38.5057 89.8363 38.7298 89.6043 38.9181C89.3724 39.1073 89.0851 39.2538 88.7425 39.3591C88.399 39.4644 88.0011 39.5168 87.5508 39.5168C87.1859 39.5168 86.8317 39.4717 86.4881 39.3819C86.1455 39.2922 85.8418 39.151 85.5788 38.9588C85.3167 38.7667 85.1081 38.5217 84.9528 38.2247C84.7985 37.9273 84.7247 37.5751 84.7305 37.1665H86.1436C86.1435 37.3892 86.1833 37.578 86.2639 37.7323Z" fill="white"/>
<path d="M94.4694 32.7474L96.947 39.3693H95.434L94.9333 37.8943H92.4556L91.9364 39.3693H90.4709L92.9758 32.7474H94.4694ZM94.5528 36.8075L93.7182 34.3796H93.6998L92.836 36.8075H94.5528Z" fill="white"/>
<path d="M59.9966 32.7474C60.312 32.7474 60.6002 32.7756 60.8603 32.8309C61.1204 32.8867 61.3436 32.9779 61.5299 33.1045C61.7153 33.2312 61.8599 33.3995 61.9618 33.6096C62.0637 33.8197 62.1151 34.0793 62.1151 34.3883C62.1151 34.7221 62.0395 34.9997 61.8871 35.2224C61.7357 35.4451 61.5105 35.627 61.2136 35.7692C61.6231 35.8866 61.9288 36.0923 62.1307 36.3863C62.3325 36.6804 62.4335 37.0346 62.4335 37.4489C62.4335 37.7827 62.3685 38.0719 62.2384 38.3164C62.1084 38.5605 61.9327 38.7599 61.7134 38.9147C61.4931 39.0695 61.2417 39.184 60.9603 39.2577C60.6779 39.3324 60.3886 39.3693 60.0907 39.3693H56.8745V32.7474H59.9966V32.7474ZM59.8102 35.4257C60.0703 35.4257 60.2838 35.3641 60.4517 35.2408C60.6186 35.1171 60.7021 34.9172 60.7021 34.6397C60.7021 34.4854 60.674 34.3587 60.6186 34.2602C60.5624 34.1613 60.4886 34.0846 60.3954 34.0288C60.3023 33.9735 60.1955 33.9347 60.0752 33.9133C59.9539 33.8915 59.8287 33.8808 59.6986 33.8808H58.3341V35.4257H59.8102ZM59.8956 38.2359C60.0383 38.2359 60.1741 38.2223 60.3042 38.1942C60.4342 38.1665 60.5497 38.1199 60.6487 38.0554C60.7477 37.9904 60.8263 37.9021 60.8855 37.791C60.9447 37.6799 60.9738 37.5377 60.9738 37.3645C60.9738 37.0249 60.8778 36.7823 60.6856 36.6372C60.4934 36.4921 60.2392 36.4194 59.9238 36.4194H58.3341V38.2359H59.8956Z" fill="white"/>
<path d="M62.6907 32.7474H64.324L65.8748 35.3626L67.416 32.7474H69.0396L66.5814 36.8279V39.3693H65.1217V36.791L62.6907 32.7474Z" fill="white"/>
<path d="M102.403 14.9808C102.407 20.8259 97.672 25.5681 91.8258 25.5724C85.9805 25.5768 81.2378 20.8418 81.2329 14.9963C81.2329 14.9914 81.2329 14.9856 81.2329 14.9808C81.229 9.13521 85.965 4.39392 91.8103 4.38907C97.6565 4.38471 102.399 9.12017 102.403 14.9653C102.403 14.9711 102.403 14.9754 102.403 14.9808Z" fill="white"/>
<path d="M91.7422 3.38617C88.5299 3.38617 85.8116 4.50695 83.5862 6.74806C81.3027 9.06729 80.1614 11.8115 80.1614 14.9808C80.1614 18.15 81.3027 20.8754 83.5862 23.1552C85.8688 25.4357 88.5881 26.5758 91.7422 26.5758C94.9351 26.5758 97.702 25.4259 100.045 23.1261C102.25 20.9428 103.353 18.2272 103.353 14.9808C103.353 11.7348 102.23 8.98962 99.9856 6.74806C97.7408 4.50695 94.9934 3.38617 91.7422 3.38617ZM91.7713 5.47296C94.4033 5.47296 96.6383 6.40016 98.4774 8.25554C100.334 10.0915 101.263 12.3331 101.263 14.9808C101.263 17.6474 100.354 19.8603 98.5347 21.6191C96.6189 23.5128 94.3645 24.4594 91.7714 24.4594C89.1782 24.4594 86.9432 23.522 85.0662 21.6482C83.1893 19.773 82.2509 17.5513 82.2509 14.9808C82.2509 12.4107 83.199 10.1687 85.0954 8.25555C86.9141 6.40016 89.1394 5.47296 91.7713 5.47296Z" fill="black"/>
<path d="M86.6024 13.3442C87.0644 10.4268 89.1189 8.86737 91.6927 8.86737C95.3951 8.86737 97.6505 11.5534 97.6505 15.1351C97.6505 18.6299 95.2505 21.345 91.6344 21.345C89.1471 21.345 86.9208 19.8142 86.5151 16.8109H89.4363C89.5236 18.3703 90.5358 18.9191 91.9819 18.9191C93.6298 18.9191 94.7012 17.3883 94.7012 15.0482C94.7012 12.5936 93.7753 11.2938 92.0391 11.2938C90.7668 11.2938 89.6682 11.7562 89.4363 13.3442L90.2864 13.3398L87.9863 15.6387L85.6873 13.3398L86.6024 13.3442Z" fill="black"/>
<path d="M63.3598 25.955C69.2909 25.955 74.099 21.1475 74.099 15.217C74.099 9.2866 69.2909 4.47903 63.3598 4.47903C57.4287 4.47903 52.6206 9.2866 52.6206 15.217C52.6206 21.1475 57.4287 25.955 63.3598 25.955Z" fill="white"/>
<path d="M66.468 12.1099C66.468 11.696 66.1323 11.3612 65.7188 11.3612H60.976C60.5626 11.3612 60.2268 11.696 60.2268 12.1099V16.8526H61.5496V22.4692H65.1443V16.8526H66.468V12.1099H66.468Z" fill="black"/>
<path d="M63.3475 10.7363C64.2434 10.7363 64.9697 10.0101 64.9697 9.1143C64.9697 8.2185 64.2434 7.49232 63.3475 7.49232C62.4516 7.49232 61.7253 8.2185 61.7253 9.1143C61.7253 10.0101 62.4516 10.7363 63.3475 10.7363Z" fill="black"/>
<path fill-rule="evenodd" clip-rule="evenodd" d="M63.3323 3.38615C60.121 3.38615 57.4012 4.50645 55.1758 6.74851C52.8923 9.06675 51.751 11.8115 51.751 14.9802C51.751 18.149 52.8923 20.8748 55.1758 23.1552C57.4594 25.4351 60.1787 26.5753 63.3323 26.5753C66.5252 26.5753 69.293 25.4259 71.6339 23.1256C73.8408 20.9427 74.9433 18.2271 74.9433 14.9802C74.9433 11.7333 73.8214 8.9896 71.5766 6.74851C69.3319 4.50645 66.5834 3.38615 63.3323 3.38615ZM63.3614 5.47246C65.9934 5.47246 68.2284 6.40015 70.0665 8.25551C71.925 10.091 72.8538 12.3331 72.8538 14.9802C72.8538 17.6469 71.9444 19.8603 70.1248 21.6186C68.209 23.5123 65.9546 24.4589 63.3614 24.4589C60.7683 24.4589 58.5332 23.522 56.6568 21.6472C54.7789 19.773 53.8409 17.5508 53.8409 14.9802C53.8409 12.4102 54.7891 10.1686 56.6854 8.25551C58.5046 6.40015 60.7304 5.47246 63.3614 5.47246Z" fill="black"/>
</g>
<defs>
<clipPath id="clip0_333_604">
<rect width="120" height="42" fill="white"/>
</clipPath>
</defs>
</svg>
