<svg width="25" height="25" viewBox="0 0 25 25" fill="none" xmlns="http://www.w3.org/2000/svg">
<path d="M9.16158 20.0399H16.5667C18.0101 20.0399 18.7283 19.3077 18.7283 17.8573V11.526C18.7283 10.6265 18.6237 10.236 18.0659 9.66427L14.2238 5.75251C13.6939 5.20863 13.2546 5.09009 12.4737 5.09009H9.16158C7.72518 5.09009 7 5.82921 7 7.27956V17.8573C7 19.3146 7.7182 20.0399 9.16158 20.0399ZM9.21039 18.9172C8.49219 18.9172 8.12263 18.5338 8.12263 17.8365V7.30048C8.12263 6.61017 8.49219 6.21272 9.21736 6.21272H12.3203V10.2639C12.3203 11.1425 12.7596 11.5748 13.6312 11.5748H17.6057V17.8365C17.6057 18.5338 17.2361 18.9172 16.511 18.9172H9.21039ZM13.7567 10.5219C13.4778 10.5219 13.3732 10.4104 13.3732 10.1315V6.42887L17.3895 10.5219H13.7567Z" fill="#44403C"/>
</svg>
