<svg width="160" height="90" viewBox="0 0 160 90" fill="none" xmlns="http://www.w3.org/2000/svg">
<rect width="160" height="90" fill="#C4C4C4"/>
<ellipse cx="77.5001" cy="43.5" rx="28.3333" ry="28.3333" fill="#F5F5F5"/>
<path d="M115.459 15.5596C112.338 12.458 107.278 12.458 104.157 15.5596C101.36 18.3394 101.072 22.6658 103.288 25.7666L93.7979 35.199C92.1184 34.0384 90.0796 33.3568 87.8833 33.3568C85.5041 33.3568 83.3104 34.1569 81.5572 35.4987L74.8915 28.8732C76.2919 26.5222 75.9755 23.4412 73.9424 21.4204C71.5342 19.0267 67.6304 19.0267 65.2221 21.4204C62.8139 23.8133 62.8139 27.6944 65.2221 30.0881C67.2618 32.1155 70.374 32.425 72.7416 31.0183L79.4396 37.6759C78.4459 39.053 77.7842 40.6828 77.5722 42.4468H67.2478C66.5629 38.7517 63.3066 35.9514 59.3912 35.9522C54.9772 35.9522 51.3997 39.5082 51.3997 43.8956C51.3997 48.2821 54.9772 51.8389 59.3912 51.8389C63.2603 51.8389 66.4875 49.1053 67.2237 45.4752H77.6566C78.4301 49.8403 81.9721 53.2679 86.4092 53.8976V64.6742C82.6735 65.3402 79.838 68.585 79.838 72.49C79.838 76.8766 83.4155 80.4334 87.8295 80.4334C92.2427 80.4334 95.8211 76.8774 95.8211 72.49C95.8211 68.6566 93.089 65.4587 89.456 64.7121V53.8836C94.4397 53.1288 98.2699 48.8402 98.2699 43.6791C98.2699 41.2599 97.4285 39.0332 96.0215 37.2717L105.49 27.859C108.584 29.8387 112.751 29.4839 115.459 26.7922C118.58 23.6906 118.58 18.6612 115.459 15.5596ZM87.8842 50.8767C83.8917 50.8767 80.6429 47.6483 80.6429 43.6791C80.6429 39.7107 83.8909 36.4815 87.8842 36.4815C91.8775 36.4815 95.1254 39.7099 95.1254 43.6791C95.1246 47.6475 91.8766 50.8767 87.8842 50.8767Z" fill="#9F9F9F"/>
</svg>
