<svg width="200" height="110" viewBox="0 0 200 110" fill="none" xmlns="http://www.w3.org/2000/svg">
<g clip-path="url(#clip0_191_874)">
<rect width="200" height="110" fill="#182125"/>
<path d="M21.1085 89.043C21.2158 89.227 21.3078 89.4225 21.3845 89.6295C21.4688 89.8288 21.5493 90.032 21.626 90.239C21.7027 90.0243 21.7832 89.8212 21.8675 89.6295C21.9518 89.4302 22.0477 89.2308 22.155 89.0315L27.7325 78.9C27.8322 78.7237 27.9357 78.6163 28.043 78.578C28.1503 78.5397 28.3037 78.5205 28.503 78.5205H30.1475V95H28.1925V82.8905C28.1925 82.7295 28.1963 82.557 28.204 82.373C28.2117 82.189 28.2232 82.0012 28.2385 81.8095L22.592 92.1135C22.4003 92.4585 22.132 92.631 21.787 92.631H21.465C21.12 92.631 20.8517 92.4585 20.66 92.1135L14.887 81.775C14.91 81.9743 14.9253 82.1698 14.933 82.3615C14.9483 82.5532 14.956 82.7295 14.956 82.8905V95H13.001V78.5205H14.6455C14.8448 78.5205 14.9982 78.5397 15.1055 78.578C15.2128 78.6163 15.3163 78.7237 15.416 78.9L21.1085 89.043ZM45.4637 78.5205V80.3375H37.5517V85.8115H43.9572V87.5595H37.5517V93.183H45.4637V95H35.3092V78.5205H45.4637ZM61.0475 78.5205V80.395H55.723V95H53.492V80.395H48.1445V78.5205H61.0475ZM77.9029 95H75.6604V87.502H66.7824V95H64.5399V78.5205H66.7824V85.869H75.6604V78.5205H77.9029V95ZM98.3811 86.766C98.3811 88.0003 98.1856 89.135 97.7946 90.17C97.4036 91.1973 96.8516 92.0828 96.1386 92.8265C95.4256 93.5702 94.567 94.149 93.5626 94.563C92.566 94.9693 91.462 95.1725 90.2506 95.1725C89.0393 95.1725 87.9353 94.9693 86.9386 94.563C85.942 94.149 85.0871 93.5702 84.3741 92.8265C83.6611 92.0828 83.1091 91.1973 82.7181 90.17C82.3271 89.135 82.1316 88.0003 82.1316 86.766C82.1316 85.5317 82.3271 84.4008 82.7181 83.3735C83.1091 82.3385 83.6611 81.4492 84.3741 80.7055C85.0871 79.9542 85.942 79.3715 86.9386 78.9575C87.9353 78.5435 89.0393 78.3365 90.2506 78.3365C91.462 78.3365 92.566 78.5435 93.5626 78.9575C94.567 79.3715 95.4256 79.9542 96.1386 80.7055C96.8516 81.4492 97.4036 82.3385 97.7946 83.3735C98.1856 84.4008 98.3811 85.5317 98.3811 86.766ZM96.0926 86.766C96.0926 85.754 95.9546 84.8455 95.6786 84.0405C95.4026 83.2355 95.0116 82.557 94.5056 82.005C93.9996 81.4453 93.3863 81.016 92.6656 80.717C91.945 80.418 91.14 80.2685 90.2506 80.2685C89.369 80.2685 88.5678 80.418 87.8471 80.717C87.1265 81.016 86.5093 81.4453 85.9956 82.005C85.4896 82.557 85.0986 83.2355 84.8226 84.0405C84.5466 84.8455 84.4086 85.754 84.4086 86.766C84.4086 87.778 84.5466 88.6865 84.8226 89.4915C85.0986 90.2888 85.4896 90.9673 85.9956 91.527C86.5093 92.079 87.1265 92.5045 87.8471 92.8035C88.5678 93.0948 89.369 93.2405 90.2506 93.2405C91.14 93.2405 91.945 93.0948 92.6656 92.8035C93.3863 92.5045 93.9996 92.079 94.5056 91.527C95.0116 90.9673 95.4026 90.2888 95.6786 89.4915C95.9546 88.6865 96.0926 87.778 96.0926 86.766ZM116.858 86.766C116.858 88.0003 116.663 89.1235 116.272 90.1355C115.881 91.1475 115.329 92.0138 114.616 92.7345C113.903 93.4552 113.048 94.0148 112.051 94.4135C111.055 94.8045 109.951 95 108.739 95H102.575V78.5205H108.739C109.951 78.5205 111.055 78.7198 112.051 79.1185C113.048 79.5095 113.903 80.0692 114.616 80.7975C115.329 81.5182 115.881 82.3845 116.272 83.3965C116.663 84.4085 116.858 85.5317 116.858 86.766ZM114.57 86.766C114.57 85.754 114.432 84.8493 114.156 84.052C113.88 83.2547 113.489 82.58 112.983 82.028C112.477 81.476 111.863 81.0543 111.143 80.763C110.422 80.4717 109.621 80.326 108.739 80.326H104.818V93.1945H108.739C109.621 93.1945 110.422 93.0488 111.143 92.7575C111.863 92.4662 112.477 92.0483 112.983 91.504C113.489 90.952 113.88 90.2773 114.156 89.48C114.432 88.6827 114.57 87.778 114.57 86.766ZM129.484 81.0965C129.415 81.2115 129.342 81.2997 129.265 81.361C129.188 81.4147 129.089 81.4415 128.966 81.4415C128.836 81.4415 128.682 81.3763 128.506 81.246C128.337 81.1157 128.119 80.9738 127.851 80.8205C127.59 80.6595 127.272 80.5138 126.896 80.3835C126.528 80.2532 126.08 80.188 125.551 80.188C125.052 80.188 124.611 80.257 124.228 80.395C123.845 80.5253 123.523 80.7055 123.262 80.9355C123.009 81.1655 122.817 81.4377 122.687 81.752C122.557 82.0587 122.492 82.3922 122.492 82.7525C122.492 83.2125 122.603 83.5958 122.825 83.9025C123.055 84.2015 123.354 84.4583 123.722 84.673C124.098 84.8877 124.519 85.0755 124.987 85.2365C125.462 85.3898 125.945 85.5508 126.436 85.7195C126.934 85.8882 127.417 86.0798 127.885 86.2945C128.36 86.5015 128.782 86.766 129.15 87.088C129.526 87.41 129.825 87.8048 130.047 88.2725C130.277 88.7402 130.392 89.3152 130.392 89.9975C130.392 90.7182 130.269 91.3967 130.024 92.033C129.779 92.6617 129.418 93.2098 128.943 93.6775C128.475 94.1452 127.897 94.5132 127.207 94.7815C126.524 95.0498 125.746 95.184 124.872 95.184C123.806 95.184 122.833 94.9923 121.951 94.609C121.077 94.218 120.33 93.6928 119.709 93.0335L120.353 91.9755C120.414 91.8912 120.487 91.8222 120.571 91.7685C120.663 91.7072 120.763 91.6765 120.87 91.6765C121.031 91.6765 121.215 91.7647 121.422 91.941C121.629 92.1097 121.886 92.2975 122.193 92.5045C122.507 92.7115 122.883 92.9032 123.32 93.0795C123.764 93.2482 124.305 93.3325 124.941 93.3325C125.47 93.3325 125.942 93.2597 126.356 93.114C126.77 92.9683 127.118 92.7652 127.402 92.5045C127.693 92.2362 127.916 91.918 128.069 91.55C128.222 91.182 128.299 90.7718 128.299 90.3195C128.299 89.8212 128.184 89.4148 127.954 89.1005C127.732 88.7785 127.437 88.5102 127.069 88.2955C126.701 88.0808 126.279 87.9007 125.804 87.755C125.336 87.6017 124.853 87.4483 124.355 87.295C123.864 87.134 123.381 86.95 122.906 86.743C122.438 86.536 122.02 86.2677 121.652 85.938C121.284 85.6083 120.985 85.1982 120.755 84.7075C120.533 84.2092 120.422 83.5958 120.422 82.8675C120.422 82.2848 120.533 81.7213 120.755 81.177C120.985 80.6327 121.315 80.1497 121.744 79.728C122.173 79.3063 122.702 78.969 123.331 78.716C123.967 78.463 124.696 78.3365 125.516 78.3365C126.436 78.3365 127.276 78.4822 128.035 78.7735C128.794 79.0648 129.457 79.4865 130.024 80.0385L129.484 81.0965ZM155.719 86.766C155.719 88.0003 155.524 89.135 155.133 90.17C154.742 91.1973 154.19 92.0828 153.477 92.8265C152.764 93.5702 151.905 94.149 150.901 94.563C149.904 94.9693 148.8 95.1725 147.589 95.1725C146.378 95.1725 145.274 94.9693 144.277 94.563C143.28 94.149 142.425 93.5702 141.712 92.8265C140.999 92.0828 140.447 91.1973 140.056 90.17C139.665 89.135 139.47 88.0003 139.47 86.766C139.47 85.5317 139.665 84.4008 140.056 83.3735C140.447 82.3385 140.999 81.4492 141.712 80.7055C142.425 79.9542 143.28 79.3715 144.277 78.9575C145.274 78.5435 146.378 78.3365 147.589 78.3365C148.8 78.3365 149.904 78.5435 150.901 78.9575C151.905 79.3715 152.764 79.9542 153.477 80.7055C154.19 81.4492 154.742 82.3385 155.133 83.3735C155.524 84.4008 155.719 85.5317 155.719 86.766ZM153.431 86.766C153.431 85.754 153.293 84.8455 153.017 84.0405C152.741 83.2355 152.35 82.557 151.844 82.005C151.338 81.4453 150.725 81.016 150.004 80.717C149.283 80.418 148.478 80.2685 147.589 80.2685C146.707 80.2685 145.906 80.418 145.185 80.717C144.465 81.016 143.848 81.4453 143.334 82.005C142.828 82.557 142.437 83.2355 142.161 84.0405C141.885 84.8455 141.747 85.754 141.747 86.766C141.747 87.778 141.885 88.6865 142.161 89.4915C142.437 90.2888 142.828 90.9673 143.334 91.527C143.848 92.079 144.465 92.5045 145.185 92.8035C145.906 93.0948 146.707 93.2405 147.589 93.2405C148.478 93.2405 149.283 93.0948 150.004 92.8035C150.725 92.5045 151.338 92.079 151.844 91.527C152.35 90.9673 152.741 90.2888 153.017 89.4915C153.293 88.6865 153.431 87.778 153.431 86.766ZM162.363 88.123V95H160.144V78.5205H164.801C165.844 78.5205 166.745 78.6278 167.504 78.8425C168.263 79.0495 168.887 79.3523 169.378 79.751C169.876 80.1497 170.244 80.6327 170.482 81.2C170.72 81.7597 170.839 82.3883 170.839 83.086C170.839 83.6687 170.747 84.213 170.563 84.719C170.379 85.225 170.11 85.6812 169.758 86.0875C169.413 86.4862 168.987 86.8273 168.481 87.111C167.983 87.3947 167.415 87.6093 166.779 87.755C167.055 87.916 167.3 88.1498 167.515 88.4565L172.322 95H170.344C169.938 95 169.639 94.8428 169.447 94.5285L165.169 88.6405C165.039 88.4565 164.897 88.3262 164.744 88.2495C164.59 88.1652 164.36 88.123 164.054 88.123H162.363ZM162.363 86.5015H164.698C165.349 86.5015 165.92 86.4248 166.411 86.2715C166.909 86.1105 167.323 85.8882 167.653 85.6045C167.99 85.3132 168.243 84.9682 168.412 84.5695C168.581 84.1708 168.665 83.73 168.665 83.247C168.665 82.2657 168.339 81.5258 167.688 81.0275C167.044 80.5292 166.081 80.28 164.801 80.28H162.363V86.5015ZM182.675 93.3785C183.119 93.3785 183.526 93.3593 183.894 93.321C184.269 93.275 184.622 93.2098 184.952 93.1255C185.281 93.0412 185.592 92.9415 185.883 92.8265C186.175 92.7038 186.466 92.5658 186.757 92.4125V88.7785H184.204C184.059 88.7785 183.94 88.7363 183.848 88.652C183.763 88.5677 183.721 88.4642 183.721 88.3415V87.0765H188.781V93.4015C188.367 93.7005 187.934 93.9612 187.482 94.1835C187.037 94.4058 186.558 94.5937 186.044 94.747C185.538 94.8927 184.994 95 184.411 95.069C183.829 95.1457 183.196 95.184 182.514 95.184C181.318 95.184 180.221 94.9808 179.225 94.5745C178.228 94.1605 177.369 93.5855 176.649 92.8495C175.928 92.1058 175.365 91.2165 174.958 90.1815C174.56 89.1465 174.36 88.008 174.36 86.766C174.36 85.5087 174.556 84.3625 174.947 83.3275C175.345 82.2925 175.909 81.407 176.637 80.671C177.373 79.9273 178.259 79.3523 179.294 78.946C180.336 78.5397 181.502 78.3365 182.79 78.3365C183.441 78.3365 184.047 78.3863 184.607 78.486C185.166 78.578 185.684 78.716 186.159 78.9C186.642 79.0763 187.087 79.2948 187.493 79.5555C187.9 79.8085 188.279 80.096 188.632 80.418L187.999 81.43C187.869 81.637 187.7 81.7405 187.493 81.7405C187.371 81.7405 187.236 81.6983 187.091 81.614C186.899 81.5067 186.684 81.3763 186.447 81.223C186.209 81.0697 185.918 80.924 185.573 80.786C185.235 80.6403 184.833 80.5177 184.365 80.418C183.905 80.3183 183.357 80.2685 182.721 80.2685C181.793 80.2685 180.954 80.4218 180.202 80.7285C179.451 81.0275 178.811 81.4607 178.282 82.028C177.753 82.5877 177.346 83.27 177.063 84.075C176.779 84.8723 176.637 85.7693 176.637 86.766C176.637 87.8087 176.783 88.7402 177.074 89.5605C177.373 90.3732 177.791 91.0632 178.328 91.6305C178.864 92.1978 179.501 92.631 180.237 92.93C180.973 93.229 181.785 93.3785 182.675 93.3785Z" fill="#F9FAFB"/>
<path d="M133.4 93.735C133.4 93.5357 133.434 93.3478 133.503 93.1715C133.58 92.9952 133.68 92.8418 133.802 92.7115C133.933 92.5812 134.086 92.4777 134.262 92.401C134.439 92.3243 134.627 92.286 134.826 92.286C135.025 92.286 135.213 92.3243 135.389 92.401C135.566 92.4777 135.719 92.5812 135.849 92.7115C135.98 92.8418 136.079 92.9952 136.148 93.1715C136.225 93.3478 136.263 93.5357 136.263 93.735C136.263 93.942 136.225 94.1337 136.148 94.31C136.079 94.4787 135.98 94.6282 135.849 94.7585C135.719 94.8888 135.566 94.9885 135.389 95.0575C135.213 95.1342 135.025 95.1725 134.826 95.1725C134.627 95.1725 134.439 95.1342 134.262 95.0575C134.086 94.9885 133.933 94.8888 133.802 94.7585C133.68 94.6282 133.58 94.4787 133.503 94.31C133.434 94.1337 133.4 93.942 133.4 93.735Z" fill="#2BB6FC"/>
<ellipse cx="39.5001" cy="38.5" rx="28.3333" ry="28.3333" fill="#F9FAFB"/>
<path d="M77.4587 10.5596C74.3383 7.45796 69.2784 7.45796 66.1571 10.5596C63.3605 13.3393 63.0723 17.6658 65.2876 20.7666L55.7979 30.199C54.1184 29.0384 52.0796 28.3568 49.8833 28.3568C47.5041 28.3568 45.3104 29.1569 43.5572 30.4986L36.8915 23.8731C38.2919 21.5222 37.9755 18.4412 35.9424 16.4204C33.5342 14.0267 29.6304 14.0267 27.2221 16.4204C24.8139 18.8133 24.8139 22.6944 27.2221 25.0881C29.2618 27.1155 32.374 27.425 34.7416 26.0183L41.4396 32.6759C40.4459 34.053 39.7842 35.6828 39.5722 37.4468H29.2478C28.5629 33.7517 25.3066 30.9514 21.3912 30.9522C16.9772 30.9522 13.3997 34.5082 13.3997 38.8956C13.3997 43.2821 16.9772 46.8389 21.3912 46.8389C25.2603 46.8389 28.4875 44.1053 29.2237 40.4752H39.6566C40.4301 44.8403 43.9721 48.2679 48.4092 48.8976V59.6742C44.6735 60.3402 41.838 63.585 41.838 67.49C41.838 71.8765 45.4155 75.4334 49.8295 75.4334C54.2427 75.4334 57.821 71.8774 57.821 67.49C57.821 63.6566 55.089 60.4587 51.456 59.7121V48.8836C56.4397 48.1288 60.2699 43.8402 60.2699 38.6791C60.2699 36.2598 59.4285 34.0332 58.0215 32.2717L67.4896 22.859C70.5835 24.8387 74.7507 24.4839 77.4587 21.7922C80.58 18.6906 80.58 13.6612 77.4587 10.5596ZM49.8842 45.8767C45.8917 45.8767 42.6429 42.6483 42.6429 38.6791C42.6429 34.7107 45.8909 31.4815 49.8842 31.4815C53.8775 31.4815 57.1254 34.7099 57.1254 38.6791C57.1246 42.6475 53.8766 45.8767 49.8842 45.8767Z" fill="#2BB6FC"/>
<path d="M109.3 60.8625C111.25 60.8625 112.988 60.5375 114.513 59.8875C116.063 59.2375 117.363 58.325 118.413 57.15C119.488 55.975 120.3 54.55 120.85 52.875C121.425 51.2 121.713 49.325 121.713 47.25V14.775H131.8V47.25C131.8 50.475 131.275 53.4625 130.225 56.2125C129.2 58.9375 127.713 61.3 125.763 63.3C123.813 65.275 121.45 66.825 118.675 67.95C115.9 69.05 112.775 69.6 109.3 69.6C105.825 69.6 102.7 69.05 99.925 67.95C97.15 66.825 94.7875 65.275 92.8375 63.3C90.9125 61.3 89.425 58.9375 88.375 56.2125C87.35 53.4625 86.8375 50.475 86.8375 47.25V14.775H96.925V47.2125C96.925 49.2875 97.2 51.1625 97.75 52.8375C98.325 54.5125 99.1375 55.95 100.188 57.15C101.238 58.325 102.525 59.2375 104.05 59.8875C105.6 60.5375 107.35 60.8625 109.3 60.8625ZM155.053 41.1L137.765 14.775H147.815C148.515 14.775 149.015 14.875 149.315 15.075C149.64 15.25 149.928 15.55 150.178 15.975L162.515 35.8875C162.64 35.5625 162.778 35.25 162.928 34.95C163.078 34.625 163.253 34.3 163.453 33.975L174.74 16.1625C175.29 15.2375 176.003 14.775 176.878 14.775H186.553L169.078 40.6875L187.04 69H176.953C176.278 69 175.728 68.825 175.303 68.475C174.903 68.125 174.565 67.725 174.29 67.275L161.728 46.5C161.628 46.8 161.515 47.0875 161.39 47.3625C161.265 47.6125 161.14 47.85 161.015 48.075L148.978 67.275C148.703 67.7 148.365 68.1 147.965 68.475C147.565 68.825 147.065 69 146.465 69H137.015L155.053 41.1Z" fill="#F9FAFB"/>
</g>
<defs>
<clipPath id="clip0_191_874">
<rect width="200" height="110" fill="white"/>
</clipPath>
</defs>
</svg>
